<mxfile host="app.diagrams.net" agent="Mozilla/5.0 (Windows NT 10.0; Win64; x64) AppleWebKit/537.36 (KHTML, like Gecko) Chrome/135.0.0.0 Safari/537.36" version="26.2.9">
  <diagram name="Page-1" id="H4TEkGzGTkuCqkXcQPTa">
    <mxGraphModel dx="1428" dy="795" grid="1" gridSize="10" guides="1" tooltips="1" connect="1" arrows="1" fold="1" page="1" pageScale="1" pageWidth="1000" pageHeight="1000" math="0" shadow="0">
      <root>
        <mxCell id="0" />
        <mxCell id="1" parent="0" />
        <mxCell id="LWqzl19-VqJiwV8eoeJw-1" value="&lt;b&gt;Location&lt;/b&gt;" style="text;html=1;align=center;verticalAlign=middle;whiteSpace=wrap;rounded=0;fontSize=15;" vertex="1" parent="1">
          <mxGeometry x="40" y="20" width="60" height="30" as="geometry" />
        </mxCell>
        <mxCell id="LWqzl19-VqJiwV8eoeJw-35" style="edgeStyle=orthogonalEdgeStyle;rounded=0;orthogonalLoop=1;jettySize=auto;html=1;exitX=0.5;exitY=1;exitDx=0;exitDy=0;entryX=0.5;entryY=0;entryDx=0;entryDy=0;" edge="1" parent="1" source="LWqzl19-VqJiwV8eoeJw-3" target="LWqzl19-VqJiwV8eoeJw-29">
          <mxGeometry relative="1" as="geometry" />
        </mxCell>
        <mxCell id="LWqzl19-VqJiwV8eoeJw-36" style="edgeStyle=orthogonalEdgeStyle;rounded=0;orthogonalLoop=1;jettySize=auto;html=1;exitX=0.5;exitY=1;exitDx=0;exitDy=0;entryX=0.5;entryY=0;entryDx=0;entryDy=0;" edge="1" parent="1" source="LWqzl19-VqJiwV8eoeJw-3" target="LWqzl19-VqJiwV8eoeJw-27">
          <mxGeometry relative="1" as="geometry" />
        </mxCell>
        <mxCell id="LWqzl19-VqJiwV8eoeJw-37" style="edgeStyle=orthogonalEdgeStyle;rounded=0;orthogonalLoop=1;jettySize=auto;html=1;exitX=0.5;exitY=1;exitDx=0;exitDy=0;" edge="1" parent="1" source="LWqzl19-VqJiwV8eoeJw-3" target="LWqzl19-VqJiwV8eoeJw-28">
          <mxGeometry relative="1" as="geometry" />
        </mxCell>
        <mxCell id="LWqzl19-VqJiwV8eoeJw-3" value="All" style="rounded=1;whiteSpace=wrap;html=1;" vertex="1" parent="1">
          <mxGeometry x="520" y="80" width="120" height="60" as="geometry" />
        </mxCell>
        <mxCell id="LWqzl19-VqJiwV8eoeJw-4" value="All" style="text;html=1;align=center;verticalAlign=middle;whiteSpace=wrap;rounded=0;fontSize=15;" vertex="1" parent="1">
          <mxGeometry x="40" y="95" width="60" height="30" as="geometry" />
        </mxCell>
        <mxCell id="LWqzl19-VqJiwV8eoeJw-47" style="edgeStyle=orthogonalEdgeStyle;rounded=0;orthogonalLoop=1;jettySize=auto;html=1;exitX=0.5;exitY=0;exitDx=0;exitDy=0;entryX=0.5;entryY=1;entryDx=0;entryDy=0;" edge="1" parent="1" source="LWqzl19-VqJiwV8eoeJw-5" target="LWqzl19-VqJiwV8eoeJw-26">
          <mxGeometry relative="1" as="geometry" />
        </mxCell>
        <mxCell id="LWqzl19-VqJiwV8eoeJw-5" value="nra" style="text;html=1;align=center;verticalAlign=middle;whiteSpace=wrap;rounded=0;fontSize=15;" vertex="1" parent="1">
          <mxGeometry x="40" y="385" width="60" height="30" as="geometry" />
        </mxCell>
        <mxCell id="LWqzl19-VqJiwV8eoeJw-46" style="edgeStyle=orthogonalEdgeStyle;rounded=0;orthogonalLoop=1;jettySize=auto;html=1;exitX=0.5;exitY=0;exitDx=0;exitDy=0;entryX=0.5;entryY=1;entryDx=0;entryDy=0;" edge="1" parent="1" source="LWqzl19-VqJiwV8eoeJw-6" target="LWqzl19-VqJiwV8eoeJw-5">
          <mxGeometry relative="1" as="geometry" />
        </mxCell>
        <mxCell id="LWqzl19-VqJiwV8eoeJw-6" value="sa4_name" style="text;html=1;align=center;verticalAlign=middle;whiteSpace=wrap;rounded=0;fontSize=15;" vertex="1" parent="1">
          <mxGeometry x="40" y="535" width="60" height="30" as="geometry" />
        </mxCell>
        <mxCell id="LWqzl19-VqJiwV8eoeJw-67" style="edgeStyle=orthogonalEdgeStyle;rounded=0;orthogonalLoop=1;jettySize=auto;html=1;exitX=0.5;exitY=0;exitDx=0;exitDy=0;entryX=0.5;entryY=1;entryDx=0;entryDy=0;" edge="1" parent="1" source="LWqzl19-VqJiwV8eoeJw-26" target="LWqzl19-VqJiwV8eoeJw-4">
          <mxGeometry relative="1" as="geometry" />
        </mxCell>
        <mxCell id="LWqzl19-VqJiwV8eoeJw-26" value="state" style="text;html=1;align=center;verticalAlign=middle;whiteSpace=wrap;rounded=0;fontSize=15;" vertex="1" parent="1">
          <mxGeometry x="40" y="235" width="60" height="30" as="geometry" />
        </mxCell>
        <mxCell id="LWqzl19-VqJiwV8eoeJw-34" style="edgeStyle=orthogonalEdgeStyle;rounded=0;orthogonalLoop=1;jettySize=auto;html=1;exitX=0.5;exitY=1;exitDx=0;exitDy=0;entryX=0.5;entryY=0;entryDx=0;entryDy=0;" edge="1" parent="1" source="LWqzl19-VqJiwV8eoeJw-27" target="LWqzl19-VqJiwV8eoeJw-30">
          <mxGeometry relative="1" as="geometry" />
        </mxCell>
        <mxCell id="LWqzl19-VqJiwV8eoeJw-39" style="edgeStyle=orthogonalEdgeStyle;rounded=0;orthogonalLoop=1;jettySize=auto;html=1;exitX=0.5;exitY=1;exitDx=0;exitDy=0;entryX=0.5;entryY=0;entryDx=0;entryDy=0;" edge="1" parent="1" source="LWqzl19-VqJiwV8eoeJw-27" target="LWqzl19-VqJiwV8eoeJw-31">
          <mxGeometry relative="1" as="geometry" />
        </mxCell>
        <mxCell id="LWqzl19-VqJiwV8eoeJw-45" style="edgeStyle=orthogonalEdgeStyle;rounded=0;orthogonalLoop=1;jettySize=auto;html=1;exitX=0.5;exitY=1;exitDx=0;exitDy=0;entryX=0.5;entryY=0;entryDx=0;entryDy=0;" edge="1" parent="1" source="LWqzl19-VqJiwV8eoeJw-27" target="LWqzl19-VqJiwV8eoeJw-42">
          <mxGeometry relative="1" as="geometry" />
        </mxCell>
        <mxCell id="LWqzl19-VqJiwV8eoeJw-27" value="WA" style="rounded=1;whiteSpace=wrap;html=1;" vertex="1" parent="1">
          <mxGeometry x="360" y="220" width="120" height="60" as="geometry" />
        </mxCell>
        <mxCell id="LWqzl19-VqJiwV8eoeJw-40" style="edgeStyle=orthogonalEdgeStyle;rounded=0;orthogonalLoop=1;jettySize=auto;html=1;exitX=0.5;exitY=1;exitDx=0;exitDy=0;entryX=0.5;entryY=0;entryDx=0;entryDy=0;" edge="1" parent="1" source="LWqzl19-VqJiwV8eoeJw-28" target="LWqzl19-VqJiwV8eoeJw-32">
          <mxGeometry relative="1" as="geometry" />
        </mxCell>
        <mxCell id="LWqzl19-VqJiwV8eoeJw-41" style="edgeStyle=orthogonalEdgeStyle;rounded=0;orthogonalLoop=1;jettySize=auto;html=1;exitX=0.5;exitY=1;exitDx=0;exitDy=0;entryX=0.5;entryY=0;entryDx=0;entryDy=0;" edge="1" parent="1" source="LWqzl19-VqJiwV8eoeJw-28" target="LWqzl19-VqJiwV8eoeJw-33">
          <mxGeometry relative="1" as="geometry" />
        </mxCell>
        <mxCell id="LWqzl19-VqJiwV8eoeJw-44" style="edgeStyle=orthogonalEdgeStyle;rounded=0;orthogonalLoop=1;jettySize=auto;html=1;exitX=0.5;exitY=1;exitDx=0;exitDy=0;entryX=0.5;entryY=0;entryDx=0;entryDy=0;" edge="1" parent="1" source="LWqzl19-VqJiwV8eoeJw-28" target="LWqzl19-VqJiwV8eoeJw-43">
          <mxGeometry relative="1" as="geometry" />
        </mxCell>
        <mxCell id="LWqzl19-VqJiwV8eoeJw-28" value="TAS" style="rounded=1;whiteSpace=wrap;html=1;" vertex="1" parent="1">
          <mxGeometry x="680" y="220" width="120" height="60" as="geometry" />
        </mxCell>
        <mxCell id="LWqzl19-VqJiwV8eoeJw-29" value="..." style="rounded=1;whiteSpace=wrap;html=1;" vertex="1" parent="1">
          <mxGeometry x="520" y="220" width="120" height="60" as="geometry" />
        </mxCell>
        <mxCell id="LWqzl19-VqJiwV8eoeJw-30" value="Inner Regional Australia" style="rounded=1;whiteSpace=wrap;html=1;" vertex="1" parent="1">
          <mxGeometry x="200" y="370" width="90" height="60" as="geometry" />
        </mxCell>
        <mxCell id="LWqzl19-VqJiwV8eoeJw-56" style="edgeStyle=orthogonalEdgeStyle;rounded=0;orthogonalLoop=1;jettySize=auto;html=1;exitX=0.5;exitY=1;exitDx=0;exitDy=0;" edge="1" parent="1" source="LWqzl19-VqJiwV8eoeJw-31" target="LWqzl19-VqJiwV8eoeJw-50">
          <mxGeometry relative="1" as="geometry" />
        </mxCell>
        <mxCell id="LWqzl19-VqJiwV8eoeJw-57" style="edgeStyle=orthogonalEdgeStyle;rounded=0;orthogonalLoop=1;jettySize=auto;html=1;exitX=0.5;exitY=1;exitDx=0;exitDy=0;entryX=0.5;entryY=0;entryDx=0;entryDy=0;" edge="1" parent="1" source="LWqzl19-VqJiwV8eoeJw-31" target="LWqzl19-VqJiwV8eoeJw-51">
          <mxGeometry relative="1" as="geometry" />
        </mxCell>
        <mxCell id="LWqzl19-VqJiwV8eoeJw-58" style="edgeStyle=orthogonalEdgeStyle;rounded=0;orthogonalLoop=1;jettySize=auto;html=1;exitX=0.5;exitY=1;exitDx=0;exitDy=0;entryX=0.5;entryY=0;entryDx=0;entryDy=0;" edge="1" parent="1" source="LWqzl19-VqJiwV8eoeJw-31" target="LWqzl19-VqJiwV8eoeJw-49">
          <mxGeometry relative="1" as="geometry" />
        </mxCell>
        <mxCell id="LWqzl19-VqJiwV8eoeJw-31" value="Major Cities of Australia" style="rounded=1;whiteSpace=wrap;html=1;" vertex="1" parent="1">
          <mxGeometry x="460" y="370" width="90" height="60" as="geometry" />
        </mxCell>
        <mxCell id="LWqzl19-VqJiwV8eoeJw-32" value="Inner Regional Australia" style="rounded=1;whiteSpace=wrap;html=1;" vertex="1" parent="1">
          <mxGeometry x="610" y="370" width="90" height="60" as="geometry" />
        </mxCell>
        <mxCell id="LWqzl19-VqJiwV8eoeJw-33" value="Outer Regional Australia" style="rounded=1;whiteSpace=wrap;html=1;" vertex="1" parent="1">
          <mxGeometry x="870" y="370" width="90" height="60" as="geometry" />
        </mxCell>
        <mxCell id="LWqzl19-VqJiwV8eoeJw-42" value="..." style="rounded=1;whiteSpace=wrap;html=1;" vertex="1" parent="1">
          <mxGeometry x="330" y="370" width="90" height="60" as="geometry" />
        </mxCell>
        <mxCell id="LWqzl19-VqJiwV8eoeJw-65" style="edgeStyle=orthogonalEdgeStyle;rounded=0;orthogonalLoop=1;jettySize=auto;html=1;exitX=0.5;exitY=1;exitDx=0;exitDy=0;entryX=0.5;entryY=0;entryDx=0;entryDy=0;" edge="1" parent="1" source="LWqzl19-VqJiwV8eoeJw-43" target="LWqzl19-VqJiwV8eoeJw-63">
          <mxGeometry relative="1" as="geometry" />
        </mxCell>
        <mxCell id="LWqzl19-VqJiwV8eoeJw-43" value="..." style="rounded=1;whiteSpace=wrap;html=1;" vertex="1" parent="1">
          <mxGeometry x="740" y="370" width="90" height="60" as="geometry" />
        </mxCell>
        <mxCell id="LWqzl19-VqJiwV8eoeJw-59" style="edgeStyle=orthogonalEdgeStyle;rounded=0;orthogonalLoop=1;jettySize=auto;html=1;exitX=0.5;exitY=1;exitDx=0;exitDy=0;entryX=0.5;entryY=0;entryDx=0;entryDy=0;" edge="1" parent="1" source="LWqzl19-VqJiwV8eoeJw-49" target="LWqzl19-VqJiwV8eoeJw-55">
          <mxGeometry relative="1" as="geometry" />
        </mxCell>
        <mxCell id="LWqzl19-VqJiwV8eoeJw-60" style="edgeStyle=orthogonalEdgeStyle;rounded=0;orthogonalLoop=1;jettySize=auto;html=1;exitX=0.5;exitY=1;exitDx=0;exitDy=0;entryX=0.5;entryY=0;entryDx=0;entryDy=0;" edge="1" parent="1" source="LWqzl19-VqJiwV8eoeJw-49" target="LWqzl19-VqJiwV8eoeJw-53">
          <mxGeometry relative="1" as="geometry" />
        </mxCell>
        <mxCell id="LWqzl19-VqJiwV8eoeJw-61" style="edgeStyle=orthogonalEdgeStyle;rounded=0;orthogonalLoop=1;jettySize=auto;html=1;exitX=0.5;exitY=1;exitDx=0;exitDy=0;entryX=0.5;entryY=0;entryDx=0;entryDy=0;" edge="1" parent="1" source="LWqzl19-VqJiwV8eoeJw-49" target="LWqzl19-VqJiwV8eoeJw-54">
          <mxGeometry relative="1" as="geometry" />
        </mxCell>
        <mxCell id="LWqzl19-VqJiwV8eoeJw-49" value="Perth - North East" style="rounded=1;whiteSpace=wrap;html=1;" vertex="1" parent="1">
          <mxGeometry x="460" y="520" width="90" height="60" as="geometry" />
        </mxCell>
        <mxCell id="LWqzl19-VqJiwV8eoeJw-50" value="Perth - South East" style="rounded=1;whiteSpace=wrap;html=1;" vertex="1" parent="1">
          <mxGeometry x="200" y="520" width="90" height="60" as="geometry" />
        </mxCell>
        <mxCell id="LWqzl19-VqJiwV8eoeJw-51" value="..." style="rounded=1;whiteSpace=wrap;html=1;" vertex="1" parent="1">
          <mxGeometry x="330" y="520" width="90" height="60" as="geometry" />
        </mxCell>
        <mxCell id="LWqzl19-VqJiwV8eoeJw-62" style="edgeStyle=orthogonalEdgeStyle;rounded=0;orthogonalLoop=1;jettySize=auto;html=1;exitX=0.5;exitY=0;exitDx=0;exitDy=0;entryX=0.5;entryY=1;entryDx=0;entryDy=0;" edge="1" parent="1" source="LWqzl19-VqJiwV8eoeJw-52" target="LWqzl19-VqJiwV8eoeJw-6">
          <mxGeometry relative="1" as="geometry" />
        </mxCell>
        <mxCell id="LWqzl19-VqJiwV8eoeJw-52" value="lga_name" style="text;html=1;align=center;verticalAlign=middle;whiteSpace=wrap;rounded=0;fontSize=15;" vertex="1" parent="1">
          <mxGeometry x="40" y="715" width="60" height="30" as="geometry" />
        </mxCell>
        <mxCell id="LWqzl19-VqJiwV8eoeJw-53" value="..." style="rounded=1;whiteSpace=wrap;html=1;" vertex="1" parent="1">
          <mxGeometry x="410" y="700" width="90" height="60" as="geometry" />
        </mxCell>
        <mxCell id="LWqzl19-VqJiwV8eoeJw-54" value="Bayswater" style="rounded=1;whiteSpace=wrap;html=1;" vertex="1" parent="1">
          <mxGeometry x="220" y="700" width="90" height="60" as="geometry" />
        </mxCell>
        <mxCell id="LWqzl19-VqJiwV8eoeJw-55" value="Swan" style="rounded=1;whiteSpace=wrap;html=1;" vertex="1" parent="1">
          <mxGeometry x="580" y="700" width="90" height="60" as="geometry" />
        </mxCell>
        <mxCell id="LWqzl19-VqJiwV8eoeJw-66" style="edgeStyle=orthogonalEdgeStyle;rounded=0;orthogonalLoop=1;jettySize=auto;html=1;exitX=0.5;exitY=1;exitDx=0;exitDy=0;entryX=0.5;entryY=0;entryDx=0;entryDy=0;" edge="1" parent="1" source="LWqzl19-VqJiwV8eoeJw-63" target="LWqzl19-VqJiwV8eoeJw-64">
          <mxGeometry relative="1" as="geometry" />
        </mxCell>
        <mxCell id="LWqzl19-VqJiwV8eoeJw-63" value="..." style="rounded=1;whiteSpace=wrap;html=1;" vertex="1" parent="1">
          <mxGeometry x="740" y="520" width="90" height="60" as="geometry" />
        </mxCell>
        <mxCell id="LWqzl19-VqJiwV8eoeJw-64" value="..." style="rounded=1;whiteSpace=wrap;html=1;" vertex="1" parent="1">
          <mxGeometry x="740" y="700" width="90" height="60" as="geometry" />
        </mxCell>
      </root>
    </mxGraphModel>
  </diagram>
</mxfile>
